<?xml version="1.0" standalone="no"?>
<!DOCTYPE svg PUBLIC "-//W3C//DTD SVG 20010904//EN"
 "http://www.w3.org/TR/2001/REC-SVG-20010904/DTD/svg10.dtd">
<svg version="1.0" xmlns="http://www.w3.org/2000/svg"
 width="700.000000pt" height="700.000000pt" viewBox="0 0 700.000000 700.000000"
 preserveAspectRatio="xMidYMid meet">
<metadata>
Created by potrace 1.11, written by Peter Selinger 2001-2013
</metadata>
<g transform="translate(0.000000,700.000000) scale(0.100000,-0.100000)"
fill="#000000" stroke="none">
<path d="M3280 6994 c-19 -2 -84 -9 -145 -14 -464 -44 -959 -203 -1370 -440
-982 -566 -1622 -1546 -1747 -2675 -16 -150 -16 -594 0 -730 67 -551 225
-1016 499 -1465 254 -415 624 -800 1032 -1074 1147 -769 2630 -794 3806 -63
370 230 736 574 993 934 348 487 561 1046 634 1668 7 62 13 220 13 365 0 334
-25 545 -100 847 -150 603 -454 1148 -889 1592 -576 588 -1278 935 -2096 1037
-110 14 -556 27 -630 18z m614 -834 c397 -59 770 -204 1102 -426 117 -78 327
-249 404 -328 l44 -46 -647 0 -647 0 0 -405 0 -405 914 0 914 0 32 -82 c46
-121 95 -288 120 -408 11 -58 23 -115 26 -127 l4 -23 -2660 0 -2660 0 4 23 c3
12 15 69 26 127 25 120 74 287 120 408 l32 82 924 0 924 0 0 405 0 405 -657 0
-658 1 85 81 c440 422 1004 678 1627 738 143 14 470 3 627 -20z m2260 -3102
c-32 -177 -83 -362 -141 -515 l-36 -93 -913 0 -914 0 0 -405 0 -405 648 0 647
-1 -85 -80 c-426 -401 -921 -640 -1505 -725 -167 -25 -543 -25 -710 0 -317 46
-581 129 -858 267 -231 117 -445 267 -647 458 l-85 80 658 1 657 0 0 405 0
405 -924 0 -924 0 -32 83 c-46 120 -95 287 -120 407 -11 58 -23 115 -26 128
l-4 22 2660 0 2659 0 -5 -32z"/>
</g>
</svg>
